<svg width="72" height="72" viewBox="0 0 72 72" fill="none" xmlns="http://www.w3.org/2000/svg">
<circle opacity="0.8" cx="36" cy="36" r="36" fill="#C1E0F2"/>
<g clip-path="url(#clip0)">
<path d="M65.0001 14.4043H60.6809V52.0426H65.0001V14.4043Z" fill="#FFC700"/>
<path d="M11.3191 13.7874H8.23401V51.4257H11.3191V13.7874Z" fill="#FFC700"/>
<path d="M61.2979 52.6597L61.2979 48.9575L8.23402 48.9575L8.23402 52.6597L61.2979 52.6597Z" fill="#FFC700"/>
<ellipse cx="35.6915" cy="53.2765" rx="3.39362" ry="3.08511" fill="#FFC700"/>
<path d="M60 49H15V13H30.3093H36.5H37.732H57.2165V16L60 16.4286V49Z" fill="white"/>
<path d="M60.5182 7.93457H54.5457V34.4434H60.5182V7.93457Z" fill="#FFC700"/>
<path d="M46 43H40V36H46V43Z" fill="#FFC700"/>
<path d="M55 32H40V15H55V32Z" fill="#FFC700"/>
<path d="M63.1296 12.6134H61.2581V8.87155C61.2581 7.84026 60.419 7 59.3865 7H55.6446C54.6133 7 53.7731 7.83905 53.7731 8.87155H41.2441C39.2407 8.87155 37.3547 9.69489 36.0006 11.1191C34.6465 9.69489 32.7604 8.87155 30.7571 8.87155H16.3553C15.3241 8.87155 14.4838 9.71061 14.4838 10.7431H12.6134C11.5822 10.7431 10.7419 11.5822 10.7419 12.6147H8.87155C7.83905 12.6134 7 13.4525 7 14.4838V51.9039C7 52.9352 7.83905 53.7755 8.87155 53.7755H12.6134V63.1308C12.6134 64.1621 13.4525 65.0024 14.485 65.0024H57.5174C58.5487 65.0024 59.3889 64.1633 59.3889 63.1308V53.7755H63.1308C64.1621 53.7755 65.0024 52.9364 65.0024 51.9039V14.4838C65 13.4525 64.1609 12.6134 63.1296 12.6134ZM55.6458 8.87155H59.3877V34.2536L57.5162 33.0059L55.6446 34.2536V8.87155H55.6458ZM53.7743 18.2257H48.1608V20.0972H53.7743V21.9688H42.5486V23.8403H53.7743V25.7119H42.5486V27.5834H53.7743V31.3253H40.6771V16.3553H53.7743V18.2257ZM41.2441 10.7419H53.7755V14.4838H38.8079V33.1933H53.7755V35.0648H48.1621V36.9364H53.7755V37.7488L57.5174 35.2546L59.3889 36.5011V48.1608H36.9352V12.9254C37.9459 11.558 39.5321 10.7419 41.2441 10.7419ZM30.7571 10.7419C30.9626 10.7419 31.4704 10.7479 32.1112 10.916C33.2851 11.2243 34.3285 11.9279 35.0648 12.9254V48.1621H16.3553C16.3602 36.0199 16.365 23.8778 16.3699 11.7357C16.3686 11.662 16.3698 11.3307 16.6237 11.0538C16.9272 10.7226 17.3443 10.7371 17.4023 10.7407C23.8597 10.7286 28.7127 10.7395 30.7571 10.7419ZM12.871 12.7622C13.0608 12.6074 13.2699 12.6026 13.3292 12.6038C13.7136 12.6074 14.0993 12.6098 14.4838 12.6134C14.4838 24.463 14.4838 36.3125 14.4838 48.1621H12.6134C12.6134 36.5193 12.6134 24.8765 12.6134 13.2337C12.6195 13.1829 12.6533 12.9387 12.871 12.7622ZM57.3481 63.0293C57.1825 63.1671 56.9879 63.1345 56.96 63.1296C43.083 63.1296 29.2059 63.1296 15.3301 63.1296C15.156 63.1308 14.9263 63.1006 14.7486 62.9459C14.5031 62.7331 14.4862 62.4465 14.4838 62.3982C14.4838 59.5231 14.4838 56.6493 14.4838 53.7743C20.1287 53.7743 25.7723 53.7743 31.4172 53.7743C31.8513 55.9058 33.7422 57.5162 36.0006 57.5162C38.259 57.5162 40.1499 55.9058 40.584 53.7743H57.5174C57.5174 56.7267 57.5174 59.6791 57.5174 62.6315C57.5186 62.6545 57.5295 62.8782 57.3481 63.0293ZM62.7996 51.6972C62.5106 51.9402 62.1781 51.9209 62.1092 51.916C54.3413 51.9112 46.5734 51.9076 38.8067 51.9027C38.8067 52.2147 38.8067 52.5266 38.8067 52.8385C38.8067 54.3861 37.5481 55.6446 36.0006 55.6446C34.4531 55.6446 33.1945 54.3861 33.1945 52.8385V51.9027C25.3891 51.8906 17.5837 51.8773 9.77952 51.8653C9.72391 51.8628 9.38055 51.8435 9.13633 51.5521C8.92233 51.297 8.92958 51.0069 8.932 50.9404C8.91145 38.9844 8.89211 27.0273 8.87155 15.0714C8.87034 15.0387 8.86188 14.8126 9.04202 14.6385C9.22096 14.4669 9.44341 14.4814 9.47727 14.4838C9.89921 14.4838 10.3212 14.4838 10.7431 14.4838C10.7431 26.3333 10.7431 38.1829 10.7431 50.0324H36.1529L36.2545 49.9985L61.2605 50.0336V14.4838H63.132C63.1284 26.7093 63.126 38.9337 63.1224 51.1592C63.103 51.2402 63.039 51.4965 62.7996 51.6972Z" fill="black"/>
<path d="M42.5486 18.2256H46.2905V20.0971H42.5486V18.2256Z" fill="black"/>
<path d="M18.2257 25.7095H33.1933V27.581H18.2257V25.7095Z" fill="black"/>
<path d="M18.2257 29.4514H33.1933V31.323H18.2257V29.4514Z" fill="black"/>
<path d="M18.2257 33.1934H21.9676V35.0649H18.2257V33.1934Z" fill="black"/>
<path d="M23.8391 33.1934H33.1945V35.0649H23.8391V33.1934Z" fill="black"/>
<path d="M46.2906 35.0649H38.8068V44.4203H46.2906V35.0649ZM44.4202 42.5487H40.6783V36.9353H44.4202V42.5487Z" fill="black"/>
<path d="M48.1621 38.8066H55.6459V40.6782H48.1621V38.8066Z" fill="black"/>
<path d="M48.1621 42.5486H53.7756V44.4201H48.1621V42.5486Z" fill="black"/>
</g>
<defs>
<clipPath id="clip0">
<rect x="7" y="7" width="58" height="58" fill="white"/>
</clipPath>
</defs>
</svg>
