<svg width="72" height="72" viewBox="0 0 72 72" fill="none" xmlns="http://www.w3.org/2000/svg">
<circle opacity="0.8" cx="36" cy="36" r="36" fill="#ACE3D6"/>
<path d="M61.7542 37.7302H29.7265V44.7825H61.7542V37.7302Z" fill="#FFC700"/>
<path d="M29.4251 60.5073H5.67175V64.4582H29.4251V60.5073Z" fill="#FFC700"/>
<path d="M61.6866 51.0303H58.0831V64.6456H61.6866V51.0303Z" fill="#FFC700"/>
<path d="M58 51H35V65H58V51Z" fill="white"/>
<path d="M29 38H6V61H29V38Z" fill="white"/>
<path d="M60.9704 38C50.778 37.8962 40.5844 37.7925 30.392 37.6887C30.3618 36.265 30.3315 34.8412 30.3013 33.4163C25.5342 33.327 20.7671 33.2389 16 33.1496C16 26.7753 16 20.4011 16 14.0256C16.0024 13.9375 16.023 13.5779 16.3013 13.3004C16.4743 13.1279 16.6715 13.0615 16.7235 13.0458C16.8203 13.0157 16.9232 13 17.0296 13H60.9716C61.5402 13 62 13.4597 62 14.0256V36.972C61.6564 37.3159 61.314 37.6585 60.9704 38Z" fill="white"/>
<path d="M38.4253 17.4223L26.8474 29.0215L28.2118 30.3884L39.7897 18.7892L38.4253 17.4223Z" fill="black"/>
<path d="M45.4199 17.425L33.8419 29.0242L35.2063 30.3911L46.7843 18.7919L45.4199 17.425Z" fill="black"/>
<path d="M47.8684 53.6723L42.0798 59.4714L43.4442 60.8384L49.2328 55.0392L47.8684 53.6723Z" fill="black"/>
<path d="M53.4155 53.672L47.627 59.4712L48.9914 60.8381L54.7799 55.039L53.4155 53.672Z" fill="black"/>
<path d="M37.7198 40.3982H35.9108V42.2105H37.7198V40.3982Z" fill="black"/>
<path d="M39.5289 11.6318H34.1019V13.4441H39.5289V11.6318Z" fill="black"/>
<path d="M18.4432 43.0395L10.7249 50.772L12.0893 52.1389L19.8076 44.4064L18.4432 43.0395Z" fill="black"/>
<path d="M24.2319 43.0395L16.5135 50.772L17.878 52.1389L25.5963 44.4064L24.2319 43.0395Z" fill="black"/>
<path d="M32.9538 45.6452V51.499H30.9084V53.3113H33.9729V51.9038C33.9729 51.1945 34.2792 50.5578 34.764 50.1132V45.644H32.9538V45.6452Z" fill="black"/>
<path d="M40.5202 45.6453H38.7112V49.4777H40.5202V45.6453Z" fill="black"/>
<path d="M33.9729 55.2747H30.9084V57.087H33.9729V55.2747Z" fill="black"/>
<path d="M40.5202 51.29H38.7112V64.172H40.5202V51.29Z" fill="black"/>
<path d="M58.6283 51.29H56.8193V64.1877H58.6283V51.29Z" fill="black"/>
<path d="M60.5784 49.4778H40.5203H38.7113H36.3945C35.765 49.4778 35.1946 49.7206 34.764 50.1145C34.2792 50.5579 33.9729 51.1946 33.9729 51.9051V53.3126V55.2748V57.0871V63.5739C33.9729 64.9138 35.0571 66 36.3945 66H60.5784C61.9159 66 63 64.9138 63 63.5739V51.9051C63 50.564 61.9159 49.4778 60.5784 49.4778ZM61.1911 63.5739C61.1911 63.9122 60.9161 64.1877 60.5784 64.1877H58.6283H56.8193H36.3945C36.0569 64.1877 35.7819 63.9122 35.7819 63.5739V51.9051C35.7819 51.5668 36.0569 51.2913 36.3945 51.2913H38.7113H40.5203H56.8193H58.6283H60.5784C60.9161 51.2913 61.1911 51.5668 61.1911 51.9051V63.5739Z" fill="black"/>
<path d="M30.9084 53.3126V51.5003V45.6465H32.9538H34.7628H38.7112H40.5202H60.5036C61.841 45.6465 62.9252 44.5604 62.9252 43.2205V10.4261C62.9264 9.08618 61.8422 8 60.5036 8H13.2611C11.9236 8 10.8394 9.08618 10.8394 10.4261V32.1303H7.42164C6.08419 32.1303 5 33.2165 5 34.5564V63.5051C5 64.845 6.08419 65.9311 7.42164 65.9311H28.4856C29.823 65.9311 30.9072 64.845 30.9072 63.5051V57.0871V55.2747V53.3126H30.9084ZM61.1174 43.2192C61.1174 43.5575 60.8425 43.833 60.5048 43.833H30.9096V38.8552H61.1186V43.2192H61.1174ZM29.0994 63.5051C29.0994 63.8434 28.8245 64.1188 28.4868 64.1188H7.42164C7.08396 64.1188 6.809 63.8434 6.809 63.5051V61.0488H29.0994V63.5051ZM29.0994 59.2365H6.809V38.7924H29.0994V59.2365ZM29.0994 36.9801H6.809V34.5564C6.809 34.2181 7.08396 33.9426 7.42164 33.9426H28.4856C28.8233 33.9426 29.0982 34.2181 29.0982 34.5564V36.9801H29.0994ZM28.4868 32.1303H12.6484V10.4261C12.6484 10.0878 12.9234 9.81231 13.2611 9.81231H60.5036C60.8413 9.81231 61.1162 10.0878 61.1162 10.4261V37.0429H30.9084V34.5564C30.9084 33.2165 29.8242 32.1303 28.4868 32.1303Z" fill="black"/>
</svg>
