<svg width="72" height="72" viewBox="0 0 72 72" fill="none" xmlns="http://www.w3.org/2000/svg">
<circle opacity="0.8" cx="36" cy="36" r="36" fill="#B6C2EC"/>
<path d="M61.5228 43.4192H52.777V48.862H61.5228V43.4192Z" fill="#FFC700"/>
<path d="M27.6315 27.279C26.1475 26.3821 24.6635 25.4852 23.1808 24.5883C23.323 24.0639 23.4653 23.5383 23.6075 23.0139C26.2657 23.0211 28.9238 23.0284 31.5819 23.0344C31.7229 23.5046 31.864 23.9759 32.005 24.446C30.5476 25.3912 29.0901 26.3351 27.6315 27.279Z" fill="#FFC700"/>
<path d="M12.8558 10.396H9.51294V15.277H12.8558V10.396Z" fill="#FFC700"/>
<path d="M64.9693 10.3706H61.6265V15.2517H64.9693V10.3706Z" fill="#FFC700"/>
<path d="M52.5912 59.0003H46.0237V24.8486H52.5912V59.0003Z" fill="white"/>
<path d="M44.113 25.8431L40.6821 24.399L42.1794 20.8416L45.6102 22.2857L44.113 25.8431Z" fill="white"/>
<path d="M61.2106 43.077H53.1989V28.0854H61.2106V43.077Z" fill="white"/>
<path d="M40.5 62.5V66H13C13 52.9093 13 30 13 30L21 27.5L23 31L27.5 27.5L32.5 31L36 23.5L44.9909 27L45 62.5H40.5Z" fill="white"/>
<path d="M66.0338 16.4801V9.14345H60.8031V11.898H57.1071V9.90412C57.1071 9.40505 56.702 9 56.2029 9H50.3804V10.8082H55.2988V11.8968H41.9564V9.90412C41.9564 9.40505 41.5513 9 41.0523 9H35.2297V10.8082H40.1482V11.8968H31.5072V9.90412C31.5072 9.40505 31.1021 9 30.603 9H24.7805V10.8082H29.6989V11.8968H13.2306V9.14345H8V16.4813H13.2306V13.705H29.6989V14.5031H27.1734C26.9323 14.5031 26.7008 14.5995 26.5309 14.7707C26.3609 14.9419 26.2669 15.1745 26.2693 15.4156L26.3054 18.873L18.4938 20.6089C18.2347 20.6668 18.0141 20.8343 17.8911 21.0694C17.7681 21.3045 17.7525 21.5806 17.8513 21.8277L18.2973 22.9416L8.7908 25.7552C8.40625 25.8685 8.14345 26.2217 8.14345 26.6219V62.2419C8.14345 62.741 8.5485 63.146 9.04758 63.146H12.9654V66.0947C12.9654 66.5937 13.3705 66.9988 13.8696 66.9988H27.3711H40.8727C41.3717 66.9988 41.7768 66.5937 41.7768 66.0947V63.146H45.7151C46.2142 63.146 46.6192 62.741 46.6192 62.2419V60.0805H52.4635C52.9626 60.0805 53.3676 59.6754 53.3676 59.1763V49.765H61.2817C61.7808 49.765 62.1858 49.36 62.1858 48.8609V28.4446H64.6064C64.9271 28.4446 65.2237 28.2747 65.3864 27.9986C65.5491 27.7225 65.5528 27.3802 65.3973 27.1005L62.14 21.2527C62.0134 21.0248 61.7928 20.8621 61.5373 20.8078L53.716 19.1503L53.6859 16.3125H56.2017C56.7008 16.3125 57.1059 15.9075 57.1059 15.4084V13.705H60.8019V16.4801H66.0338ZM62.6114 10.9517H64.2255V14.6731H62.6114V10.9517ZM11.4224 14.6719H9.80824V10.9517H11.4224V14.6719ZM30.603 16.3113C31.1021 16.3113 31.5072 15.9063 31.5072 15.4072V13.705H40.1482V14.5031H37.6226C37.3815 14.5031 37.1501 14.5995 36.9801 14.7707C36.8101 14.9419 36.7161 15.1745 36.7185 15.4156L36.7655 19.8929C36.7704 20.316 37.0681 20.68 37.4828 20.768L40.247 21.3539L39.2826 23.7758L36.4642 22.9416L36.9102 21.8277C37.009 21.5818 36.9946 21.3045 36.8704 21.0694C36.7462 20.8343 36.5256 20.6668 36.2677 20.6089L28.1149 18.7971L28.0884 16.3101H30.603V16.3113ZM43.9346 25.1536L41.0233 24.2917L42.0408 21.7349L44.9822 22.3581L43.9346 25.1536ZM27.3807 20.4872L34.8355 22.1435L31.8254 29.6682L28.9708 27.3838L32.6777 25.1597C32.9164 25.0162 33.0755 24.7715 33.1093 24.4954C33.143 24.2194 33.0478 23.9421 32.8513 23.7456L30.9225 21.8168L29.6435 23.0959L30.7537 24.2061L27.3795 26.2301L24.0054 24.2061L25.1156 23.0959L23.8366 21.8168L21.9078 23.7456C21.7113 23.9421 21.6161 24.2194 21.6498 24.4954C21.6836 24.7715 21.8427 25.0174 22.0814 25.1597L25.7883 27.3838L22.9337 29.6682L19.9236 22.1435L27.3807 20.4872ZM14.7725 65.1918V63.1472H16.0877C16.5867 63.1472 16.9918 62.7422 16.9918 62.2431V38.6576H15.1835V61.339H9.95049V27.2982L18.9712 24.6292L21.7089 31.4728C21.815 31.7381 22.0416 31.9382 22.3177 32.0117C22.3936 32.0322 22.4708 32.0418 22.5479 32.0418C22.7504 32.0418 22.9506 31.9731 23.1133 31.8441L26.4658 29.1619V65.193H14.7725V65.1918ZM44.8098 61.339H39.5767V38.6576H37.7685V62.2431C37.7685 62.7422 38.1735 63.1472 38.6726 63.1472H39.9673V65.1918H28.274V29.1438L31.647 31.8429C31.8085 31.9731 32.0086 32.0406 32.2124 32.0406C32.2895 32.0406 32.3667 32.031 32.4426 32.0105C32.7199 31.9382 32.9453 31.7381 33.0514 31.4716L35.7891 24.628L44.8098 27.297V61.339ZM51.5594 58.2734H46.6192V26.6231C46.6192 26.2229 46.3552 25.8697 45.9719 25.7564L45.6741 25.6684L46.0286 24.7245L51.5606 26.1964V58.2734H51.5594ZM53.3676 47.9568V44.3222H60.3776V47.9568H53.3676ZM60.3776 42.5152H53.3676V28.4446H60.3776V42.5152ZM60.7585 22.4907L63.067 26.6352H53.3664V25.4996C53.3664 25.0897 53.0904 24.7317 52.6949 24.6256L46.6651 23.0211L47.0062 22.1098L52.9855 20.8428L60.7585 22.4907ZM55.2988 14.5031H52.7733C52.5322 14.5031 52.3007 14.5995 52.1308 14.7707C51.9608 14.9419 51.8668 15.1745 51.8692 15.4156L51.909 19.2226L45.4113 20.5993L38.5665 19.1503L38.5364 16.3125H41.0523C41.5513 16.3125 41.9564 15.9075 41.9564 15.4084V13.705H55.2976V14.5031H55.2988Z" fill="black"/>
<path d="M43.6743 57.2693H41.8661V59.0775H43.6743V57.2693Z" fill="black"/>
<path d="M50.7649 54.3459H48.9567V56.1542H50.7649V54.3459Z" fill="black"/>
<path d="M12.8256 57.2693H11.0173V59.0775H12.8256V57.2693Z" fill="black"/>
<path d="M24.3899 36.0669H22.5817V37.8751H24.3899V36.0669Z" fill="black"/>
<path d="M24.3899 45.6252H22.5817V47.4335H24.3899V45.6252Z" fill="black"/>
<path d="M24.3899 55.3044H22.5817V57.1127H24.3899V55.3044Z" fill="black"/>
</svg>
