<svg width="72" height="72" viewBox="0 0 72 72" fill="none" xmlns="http://www.w3.org/2000/svg">
<circle opacity="0.8" cx="36" cy="36" r="36" fill="#F1B177"/>
<g clip-path="url(#clip0)">
<path d="M33.9572 34.1799H9.5108V37.1386H33.9572V34.1799Z" fill="#FFC700"/>
<path d="M36.7233 36.9675L36.7233 18.4553L33.7647 18.4553L33.7647 36.9675L36.7233 36.9675Z" fill="#FFC700"/>
<path d="M63.0535 20.7231H57.8892V38.4739H63.0535V20.7231Z" fill="#FFC700"/>
<path d="M34 18H8V34H34V18Z" fill="white"/>
<path d="M52.9986 55H16V46.8329C16 46.3737 16.4434 46 16.9912 46H53V55H52.9986Z" fill="white"/>
<path d="M52.9986 61H14V54.6478C14 54.2907 14.4673 54 15.0447 54H53V61H52.9986Z" fill="white"/>
<path d="M51 55H12V58H51V55Z" fill="#FFC700"/>
<path d="M48.5375 20.7509C51.2552 20.7509 53.4585 18.5477 53.4585 15.8299C53.4585 13.1121 51.2552 10.9089 48.5375 10.9089C45.8197 10.9089 43.6165 13.1121 43.6165 15.8299C43.6165 18.5477 45.8197 20.7509 48.5375 20.7509Z" fill="white"/>
<path d="M47.7615 42.1516H15.2114C13.8205 42.1516 12.6874 43.2835 12.6874 44.6757V53.9596C11.6451 54.3143 10.8921 55.3021 10.8921 56.4631C10.8921 57.9206 12.0785 59.107 13.536 59.107H49.4357C50.8932 59.107 52.0796 57.9206 52.0796 56.4631C52.0796 55.3021 51.3278 54.3143 50.2843 53.9596V44.6757C50.2843 43.2835 49.1524 42.1516 47.7615 42.1516ZM14.3846 44.6757C14.3846 44.2205 14.755 43.8488 15.2114 43.8488H47.7615C48.2166 43.8488 48.5883 44.2193 48.5883 44.6757V53.8192H14.3846V44.6757ZM50.3824 56.4631C50.3824 56.9848 49.9574 57.4097 49.4357 57.4097H13.536C13.0142 57.4097 12.5893 56.9848 12.5893 56.4631C12.5893 55.9413 13.0142 55.5164 13.536 55.5164H49.4357C49.9574 55.5164 50.3824 55.9413 50.3824 56.4631Z" fill="black"/>
<path d="M51.9658 45.4058H51.2285V47.103H51.9658C52.9258 47.103 52.9258 47.333 52.9258 47.6502V58.9921C52.9258 59.7656 52.4052 60.6808 51.9658 60.6808H11.0059C10.5047 60.6808 9.81465 59.7027 9.81465 58.9921V47.6502C9.81465 47.4722 9.81465 47.103 11.0059 47.103H11.7383V45.4058H11.0059C10.2505 45.4058 9.62943 45.5413 9.15973 45.8101C8.48665 46.1938 8.11621 46.8476 8.11621 47.6502V58.9921C8.11621 59.7051 8.40917 60.521 8.90067 61.176C9.47448 61.9398 10.242 62.3781 11.0047 62.3781H11.7371V65.9989H13.4355V62.3793H50.323V66.0001H52.0202V62.3769C53.6969 62.3345 54.623 60.3625 54.623 58.9933V47.6514C54.623 46.8125 54.278 45.4058 51.9658 45.4058Z" fill="black"/>
<path d="M18.98 47.2168H17.1689V48.914H18.98V47.2168Z" fill="black"/>
<path d="M45.9093 47.2168H43.9857V48.914H45.9093V47.2168Z" fill="black"/>
<path d="M32.4452 47.2168H30.6342V48.914H32.4452V47.2168Z" fill="black"/>
<path d="M47.3716 22.2618C51.3036 22.2618 54.5031 19.0623 54.5031 15.1303C54.5031 11.1983 51.3048 8 47.3716 8C43.4385 8 40.2401 11.1983 40.2401 15.1315C40.2413 19.0635 43.4397 22.2618 47.3716 22.2618ZM41.9906 14.3858C42.3163 12.0191 44.1709 10.1342 46.523 9.76381V10.9913H48.2202V9.76381C50.5724 10.1342 52.427 12.0191 52.7526 14.3858H51.6147V16.083H52.72C52.3168 18.3517 50.5034 20.1385 48.2202 20.498V19.5913H46.523V20.498C44.2399 20.1385 42.4264 18.3517 42.0233 16.083H43.0148V14.3858H41.9906Z" fill="black"/>
<path d="M48.2203 12.3496H46.523V14.3858H43.6939V16.083H48.2203V12.3496Z" fill="black"/>
<path d="M61.6782 61.5571V41.5583H59.981V61.5571H55.4752V65.9467H66.1477V61.5571H61.6782ZM64.4504 64.2494H57.1724V63.2543H64.4504V64.2494Z" fill="black"/>
<path d="M59.9798 40.6457H61.677V39.2402H64.3512V19.5938H57.2705V39.2414H59.981V40.6457H59.9798ZM58.9677 37.543V21.291H62.6552V34.8749H59.981V36.5721H62.6552V37.543H58.9677Z" fill="black"/>
<path d="M21.9239 23.8783L16.0414 29.7607L17.4282 31.1475L23.3106 25.265L21.9239 23.8783Z" fill="black"/>
<path d="M27.5613 23.8786L21.6788 29.761L23.0656 31.1477L28.948 25.2653L27.5613 23.8786Z" fill="black"/>
<path d="M10.4308 38.1347H35.2707C36.6132 38.1347 37.7015 37.0464 37.7015 35.7039V19.5173C37.7015 18.1747 36.6132 17.0864 35.2707 17.0864H10.4308C9.08831 17.0864 8 18.1747 8 19.5173V35.7027C8 37.0464 9.08831 38.1347 10.4308 38.1347ZM9.69481 19.5173C9.69481 19.1117 10.0253 18.7812 10.4308 18.7812H35.2707C35.6762 18.7812 36.0067 19.1117 36.0067 19.5173V35.7027C36.0067 36.1082 35.6762 36.4387 35.2707 36.4387H10.4308C10.0253 36.4387 9.69481 36.1082 9.69481 35.7027V19.5173Z" fill="black"/>
<path d="M33.8083 20.9919H11.8751V34.2599H33.8083V20.9919ZM32.1135 32.5651H13.5699V22.6868H32.1135V32.5651Z" fill="black"/>
</g>
<defs>
<clipPath id="clip0">
<rect x="8" y="8" width="58.1477" height="58" fill="white"/>
</clipPath>
</defs>
</svg>
