<svg width="342" height="40" viewBox="0 0 342 40" fill="none" xmlns="http://www.w3.org/2000/svg">
<path d="M304.012 25V15.0469H307.423C308.549 15.0469 309.405 15.2725 309.993 15.7236C310.581 16.1748 310.875 16.847 310.875 17.7402C310.875 18.196 310.752 18.6061 310.506 18.9707C310.26 19.3353 309.9 19.6178 309.426 19.8184C309.964 19.9642 310.378 20.2399 310.67 20.6455C310.966 21.0465 311.114 21.5296 311.114 22.0947C311.114 23.029 310.813 23.7467 310.212 24.248C309.615 24.7493 308.758 25 307.642 25H304.012ZM305.741 20.5088V23.6191H307.662C308.204 23.6191 308.628 23.4847 308.934 23.2158C309.239 22.9469 309.392 22.5732 309.392 22.0947C309.392 21.0602 308.863 20.5316 307.806 20.5088H305.741ZM305.741 19.2373H307.437C307.974 19.2373 308.394 19.1165 308.694 18.875C309 18.6289 309.152 18.2826 309.152 17.8359C309.152 17.3438 309.011 16.9883 308.729 16.7695C308.451 16.5508 308.015 16.4414 307.423 16.4414H305.741V19.2373ZM320.787 20.2832C320.787 21.2585 320.618 22.1152 320.281 22.8535C319.944 23.5872 319.461 24.1523 318.832 24.5488C318.208 24.9408 317.488 25.1367 316.672 25.1367C315.865 25.1367 315.145 24.9408 314.512 24.5488C313.883 24.1523 313.395 23.5895 313.049 22.8604C312.707 22.1312 312.534 21.2904 312.529 20.3379V19.7773C312.529 18.8066 312.7 17.9499 313.042 17.207C313.388 16.4642 313.874 15.8968 314.498 15.5049C315.127 15.1084 315.847 14.9102 316.658 14.9102C317.469 14.9102 318.187 15.1061 318.812 15.498C319.44 15.8854 319.926 16.446 320.268 17.1797C320.609 17.9089 320.783 18.7588 320.787 19.7295V20.2832ZM319.058 19.7637C319.058 18.6608 318.848 17.8154 318.429 17.2275C318.014 16.6396 317.424 16.3457 316.658 16.3457C315.911 16.3457 315.325 16.6396 314.901 17.2275C314.482 17.8109 314.268 18.638 314.259 19.709V20.2832C314.259 21.377 314.471 22.2223 314.895 22.8193C315.323 23.4163 315.915 23.7148 316.672 23.7148C317.438 23.7148 318.025 23.4232 318.436 22.8398C318.85 22.2565 319.058 21.4043 319.058 20.2832V19.7637ZM327.712 22.4365C327.712 21.999 327.557 21.6618 327.247 21.4248C326.942 21.1878 326.388 20.9486 325.586 20.707C324.784 20.4655 324.146 20.1966 323.672 19.9004C322.765 19.3307 322.312 18.5879 322.312 17.6719C322.312 16.8698 322.637 16.209 323.289 15.6895C323.945 15.1699 324.795 14.9102 325.839 14.9102C326.532 14.9102 327.149 15.0378 327.691 15.293C328.234 15.5482 328.66 15.9128 328.97 16.3867C329.28 16.8561 329.435 17.3779 329.435 17.9521H327.712C327.712 17.4326 327.548 17.027 327.22 16.7354C326.896 16.4391 326.431 16.291 325.825 16.291C325.26 16.291 324.82 16.4118 324.506 16.6533C324.196 16.8949 324.041 17.2321 324.041 17.665C324.041 18.0296 324.21 18.335 324.547 18.5811C324.884 18.8226 325.44 19.0596 326.215 19.292C326.99 19.5199 327.612 19.7819 328.081 20.0781C328.55 20.3698 328.895 20.707 329.113 21.0898C329.332 21.4681 329.441 21.9124 329.441 22.4229C329.441 23.2523 329.122 23.9131 328.484 24.4053C327.851 24.8929 326.99 25.1367 325.9 25.1367C325.18 25.1367 324.517 25.0046 323.911 24.7402C323.31 24.4714 322.84 24.1022 322.503 23.6328C322.17 23.1634 322.004 22.6165 322.004 21.9922H323.733C323.733 22.5573 323.92 22.9948 324.294 23.3047C324.668 23.6146 325.203 23.7695 325.9 23.7695C326.502 23.7695 326.953 23.6488 327.254 23.4072C327.559 23.1611 327.712 22.8376 327.712 22.4365Z" fill="black"/>
<rect x="0.5" y="0.5" width="341" height="39" rx="4.5" stroke="black"/>
<path d="M46.4746 23.9268H51.1914V25H45.1553V15.0469H46.4746V23.9268ZM52.1553 21.2334C52.1553 20.5088 52.2965 19.8571 52.5791 19.2783C52.8662 18.6995 53.2627 18.2529 53.7686 17.9385C54.279 17.624 54.86 17.4668 55.5117 17.4668C56.5189 17.4668 57.3324 17.8154 57.9521 18.5127C58.5765 19.21 58.8887 20.1374 58.8887 21.2949V21.3838C58.8887 22.1038 58.7497 22.751 58.4717 23.3252C58.1982 23.8949 57.804 24.3392 57.2891 24.6582C56.7786 24.9772 56.1908 25.1367 55.5254 25.1367C54.5228 25.1367 53.7093 24.7881 53.085 24.0908C52.4652 23.3936 52.1553 22.4707 52.1553 21.3223V21.2334ZM53.4268 21.3838C53.4268 22.2041 53.6159 22.8626 53.9941 23.3594C54.377 23.8561 54.8874 24.1045 55.5254 24.1045C56.168 24.1045 56.6784 23.8538 57.0566 23.3525C57.4349 22.8467 57.624 22.1403 57.624 21.2334C57.624 20.4222 57.4303 19.766 57.043 19.2646C56.6602 18.7588 56.1497 18.5059 55.5117 18.5059C54.8874 18.5059 54.3838 18.7542 54.001 19.251C53.6182 19.7477 53.4268 20.4587 53.4268 21.3838ZM60.1396 21.2334C60.1396 20.5088 60.2809 19.8571 60.5635 19.2783C60.8506 18.6995 61.2471 18.2529 61.7529 17.9385C62.2633 17.624 62.8444 17.4668 63.4961 17.4668C64.5033 17.4668 65.3167 17.8154 65.9365 18.5127C66.5609 19.21 66.873 20.1374 66.873 21.2949V21.3838C66.873 22.1038 66.734 22.751 66.4561 23.3252C66.1826 23.8949 65.7884 24.3392 65.2734 24.6582C64.763 24.9772 64.1751 25.1367 63.5098 25.1367C62.5072 25.1367 61.6937 24.7881 61.0693 24.0908C60.4495 23.3936 60.1396 22.4707 60.1396 21.3223V21.2334ZM61.4111 21.3838C61.4111 22.2041 61.6003 22.8626 61.9785 23.3594C62.3613 23.8561 62.8717 24.1045 63.5098 24.1045C64.1523 24.1045 64.6628 23.8538 65.041 23.3525C65.4193 22.8467 65.6084 22.1403 65.6084 21.2334C65.6084 20.4222 65.4147 19.766 65.0273 19.2646C64.6445 18.7588 64.1341 18.5059 63.4961 18.5059C62.8717 18.5059 62.3682 18.7542 61.9854 19.251C61.6025 19.7477 61.4111 20.4587 61.4111 21.3838ZM70.5234 21.5752L69.7305 22.4023V25H68.4658V14.5H69.7305V20.8506L70.4072 20.0371L72.7109 17.6035H74.249L71.3711 20.6934L74.584 25H73.1006L70.5234 21.5752ZM76.9287 25H75.6641V17.6035H76.9287V25ZM75.5615 15.6416C75.5615 15.4365 75.623 15.2633 75.7461 15.1221C75.8737 14.9808 76.0605 14.9102 76.3066 14.9102C76.5527 14.9102 76.7396 14.9808 76.8672 15.1221C76.9948 15.2633 77.0586 15.4365 77.0586 15.6416C77.0586 15.8467 76.9948 16.0176 76.8672 16.1543C76.7396 16.291 76.5527 16.3594 76.3066 16.3594C76.0605 16.3594 75.8737 16.291 75.7461 16.1543C75.623 16.0176 75.5615 15.8467 75.5615 15.6416ZM80.1553 17.6035L80.1963 18.5332C80.7614 17.8223 81.4997 17.4668 82.4111 17.4668C83.9743 17.4668 84.7627 18.3486 84.7764 20.1123V25H83.5117V20.1055C83.5072 19.5723 83.3841 19.1781 83.1426 18.9229C82.9056 18.6676 82.5342 18.54 82.0283 18.54C81.6182 18.54 81.2581 18.6494 80.9482 18.8682C80.6383 19.0869 80.3968 19.374 80.2236 19.7295V25H78.959V17.6035H80.1553ZM86.3828 21.2402C86.3828 20.0872 86.6494 19.1712 87.1826 18.4922C87.7158 17.8086 88.4222 17.4668 89.3018 17.4668C90.2041 17.4668 90.9082 17.7858 91.4141 18.4238L91.4756 17.6035H92.6309V24.8223C92.6309 25.7793 92.346 26.5335 91.7764 27.085C91.2113 27.6364 90.4502 27.9121 89.4932 27.9121C88.96 27.9121 88.4382 27.7982 87.9277 27.5703C87.4173 27.3424 87.0277 27.0303 86.7588 26.6338L87.415 25.875C87.9574 26.5449 88.6204 26.8799 89.4043 26.8799C90.0195 26.8799 90.498 26.7067 90.8398 26.3604C91.1862 26.014 91.3594 25.5264 91.3594 24.8975V24.2617C90.8535 24.8451 90.1631 25.1367 89.2881 25.1367C88.4222 25.1367 87.7204 24.7881 87.1826 24.0908C86.6494 23.3936 86.3828 22.4434 86.3828 21.2402ZM87.6543 21.3838C87.6543 22.2178 87.8252 22.874 88.167 23.3525C88.5088 23.8265 88.9873 24.0635 89.6025 24.0635C90.4001 24.0635 90.9857 23.7012 91.3594 22.9766V19.5996C90.972 18.8932 90.391 18.54 89.6162 18.54C89.001 18.54 88.5202 18.7793 88.1738 19.2578C87.8275 19.7363 87.6543 20.445 87.6543 21.3838ZM98.6396 25V18.5811H97.4707V17.6035H98.6396V16.8447C98.6396 16.0518 98.8516 15.4388 99.2754 15.0059C99.6992 14.5729 100.299 14.3564 101.073 14.3564C101.365 14.3564 101.654 14.3952 101.941 14.4727L101.873 15.498C101.659 15.457 101.431 15.4365 101.189 15.4365C100.779 15.4365 100.463 15.5573 100.239 15.7988C100.016 16.0358 99.9043 16.3776 99.9043 16.8242V17.6035H101.483V18.5811H99.9043V25H98.6396ZM102.55 21.2334C102.55 20.5088 102.691 19.8571 102.974 19.2783C103.261 18.6995 103.657 18.2529 104.163 17.9385C104.674 17.624 105.255 17.4668 105.906 17.4668C106.913 17.4668 107.727 17.8154 108.347 18.5127C108.971 19.21 109.283 20.1374 109.283 21.2949V21.3838C109.283 22.1038 109.144 22.751 108.866 23.3252C108.593 23.8949 108.199 24.3392 107.684 24.6582C107.173 24.9772 106.585 25.1367 105.92 25.1367C104.917 25.1367 104.104 24.7881 103.479 24.0908C102.86 23.3936 102.55 22.4707 102.55 21.3223V21.2334ZM103.821 21.3838C103.821 22.2041 104.01 22.8626 104.389 23.3594C104.771 23.8561 105.282 24.1045 105.92 24.1045C106.562 24.1045 107.073 23.8538 107.451 23.3525C107.829 22.8467 108.019 22.1403 108.019 21.2334C108.019 20.4222 107.825 19.766 107.438 19.2646C107.055 18.7588 106.544 18.5059 105.906 18.5059C105.282 18.5059 104.778 18.7542 104.396 19.251C104.013 19.7477 103.821 20.4587 103.821 21.3838ZM114.444 18.7383C114.253 18.7064 114.046 18.6904 113.822 18.6904C112.993 18.6904 112.43 19.0436 112.134 19.75V25H110.869V17.6035H112.1L112.12 18.458C112.535 17.7972 113.123 17.4668 113.884 17.4668C114.13 17.4668 114.317 17.4987 114.444 17.5625V18.7383ZM123.393 23.0381C123.393 22.6963 123.263 22.432 123.003 22.2451C122.748 22.0537 122.299 21.8896 121.656 21.7529C121.018 21.6162 120.51 21.4521 120.132 21.2607C119.758 21.0693 119.48 20.8415 119.298 20.5771C119.12 20.3128 119.031 19.9984 119.031 19.6338C119.031 19.0277 119.286 18.515 119.797 18.0957C120.312 17.6764 120.968 17.4668 121.766 17.4668C122.604 17.4668 123.283 17.6833 123.803 18.1162C124.327 18.5492 124.589 19.1029 124.589 19.7773H123.317C123.317 19.431 123.169 19.1325 122.873 18.8818C122.581 18.6312 122.212 18.5059 121.766 18.5059C121.305 18.5059 120.945 18.6061 120.686 18.8066C120.426 19.0072 120.296 19.2692 120.296 19.5928C120.296 19.8981 120.417 20.1283 120.658 20.2832C120.9 20.4382 121.335 20.5863 121.964 20.7275C122.597 20.8688 123.11 21.0374 123.502 21.2334C123.894 21.4294 124.183 21.6663 124.37 21.9443C124.562 22.2178 124.657 22.5527 124.657 22.9492C124.657 23.61 124.393 24.141 123.864 24.542C123.336 24.9385 122.65 25.1367 121.807 25.1367C121.214 25.1367 120.69 25.0319 120.234 24.8223C119.779 24.6126 119.421 24.321 119.161 23.9473C118.906 23.569 118.778 23.1611 118.778 22.7236H120.043C120.066 23.1475 120.234 23.4847 120.549 23.7354C120.868 23.9814 121.287 24.1045 121.807 24.1045C122.285 24.1045 122.668 24.0088 122.955 23.8174C123.247 23.6214 123.393 23.3617 123.393 23.0381ZM125.97 21.2334C125.97 20.5088 126.111 19.8571 126.394 19.2783C126.681 18.6995 127.077 18.2529 127.583 17.9385C128.093 17.624 128.674 17.4668 129.326 17.4668C130.333 17.4668 131.147 17.8154 131.767 18.5127C132.391 19.21 132.703 20.1374 132.703 21.2949V21.3838C132.703 22.1038 132.564 22.751 132.286 23.3252C132.013 23.8949 131.618 24.3392 131.104 24.6582C130.593 24.9772 130.005 25.1367 129.34 25.1367C128.337 25.1367 127.524 24.7881 126.899 24.0908C126.28 23.3936 125.97 22.4707 125.97 21.3223V21.2334ZM127.241 21.3838C127.241 22.2041 127.43 22.8626 127.809 23.3594C128.191 23.8561 128.702 24.1045 129.34 24.1045C129.982 24.1045 130.493 23.8538 130.871 23.3525C131.249 22.8467 131.438 22.1403 131.438 21.2334C131.438 20.4222 131.245 19.766 130.857 19.2646C130.475 18.7588 129.964 18.5059 129.326 18.5059C128.702 18.5059 128.198 18.7542 127.815 19.251C127.433 19.7477 127.241 20.4587 127.241 21.3838ZM135.479 17.6035L135.513 18.4238C136.055 17.7858 136.786 17.4668 137.707 17.4668C138.742 17.4668 139.446 17.8633 139.819 18.6562C140.065 18.3008 140.384 18.0137 140.776 17.7949C141.173 17.5762 141.64 17.4668 142.178 17.4668C143.8 17.4668 144.625 18.3258 144.652 20.0439V25H143.388V20.1191C143.388 19.5905 143.267 19.1963 143.025 18.9365C142.784 18.6722 142.378 18.54 141.809 18.54C141.339 18.54 140.95 18.6813 140.64 18.9639C140.33 19.2419 140.15 19.6178 140.1 20.0918V25H138.828V20.1533C138.828 19.0778 138.302 18.54 137.249 18.54C136.42 18.54 135.852 18.8932 135.547 19.5996V25H134.282V17.6035H135.479ZM149.636 25.1367C148.633 25.1367 147.817 24.8086 147.188 24.1523C146.56 23.4915 146.245 22.6097 146.245 21.5068V21.2744C146.245 20.5407 146.384 19.8867 146.662 19.3125C146.945 18.7337 147.337 18.2826 147.838 17.959C148.344 17.6309 148.891 17.4668 149.479 17.4668C150.44 17.4668 151.188 17.7835 151.721 18.417C152.254 19.0505 152.521 19.9574 152.521 21.1377V21.6641H147.51C147.528 22.3932 147.74 22.9834 148.146 23.4346C148.556 23.8812 149.075 24.1045 149.704 24.1045C150.151 24.1045 150.529 24.0133 150.839 23.8311C151.149 23.6488 151.42 23.4072 151.652 23.1064L152.425 23.708C151.805 24.6605 150.875 25.1367 149.636 25.1367ZM149.479 18.5059C148.968 18.5059 148.54 18.6927 148.193 19.0664C147.847 19.4355 147.633 19.9551 147.551 20.625H151.256V20.5293C151.219 19.8867 151.046 19.39 150.736 19.0391C150.426 18.6836 150.007 18.5059 149.479 18.5059ZM155.706 15.8125V17.6035H157.087V18.5811H155.706V23.168C155.706 23.4642 155.768 23.6875 155.891 23.8379C156.014 23.9837 156.223 24.0566 156.52 24.0566C156.665 24.0566 156.866 24.0293 157.121 23.9746V25C156.788 25.0911 156.465 25.1367 156.15 25.1367C155.585 25.1367 155.159 24.9658 154.872 24.624C154.585 24.2822 154.441 23.7969 154.441 23.168V18.5811H153.095V17.6035H154.441V15.8125H155.706ZM159.835 18.499C160.396 17.8109 161.125 17.4668 162.022 17.4668C163.586 17.4668 164.374 18.3486 164.388 20.1123V25H163.123V20.1055C163.118 19.5723 162.995 19.1781 162.754 18.9229C162.517 18.6676 162.146 18.54 161.64 18.54C161.229 18.54 160.869 18.6494 160.56 18.8682C160.25 19.0869 160.008 19.374 159.835 19.7295V25H158.57V14.5H159.835V18.499ZM167.655 25H166.391V17.6035H167.655V25ZM166.288 15.6416C166.288 15.4365 166.35 15.2633 166.473 15.1221C166.6 14.9808 166.787 14.9102 167.033 14.9102C167.279 14.9102 167.466 14.9808 167.594 15.1221C167.721 15.2633 167.785 15.4365 167.785 15.6416C167.785 15.8467 167.721 16.0176 167.594 16.1543C167.466 16.291 167.279 16.3594 167.033 16.3594C166.787 16.3594 166.6 16.291 166.473 16.1543C166.35 16.0176 166.288 15.8467 166.288 15.6416ZM170.882 17.6035L170.923 18.5332C171.488 17.8223 172.226 17.4668 173.138 17.4668C174.701 17.4668 175.489 18.3486 175.503 20.1123V25H174.238V20.1055C174.234 19.5723 174.111 19.1781 173.869 18.9229C173.632 18.6676 173.261 18.54 172.755 18.54C172.345 18.54 171.985 18.6494 171.675 18.8682C171.365 19.0869 171.123 19.374 170.95 19.7295V25H169.686V17.6035H170.882ZM177.109 21.2402C177.109 20.0872 177.376 19.1712 177.909 18.4922C178.442 17.8086 179.149 17.4668 180.028 17.4668C180.931 17.4668 181.635 17.7858 182.141 18.4238L182.202 17.6035H183.357V24.8223C183.357 25.7793 183.073 26.5335 182.503 27.085C181.938 27.6364 181.177 27.9121 180.22 27.9121C179.687 27.9121 179.165 27.7982 178.654 27.5703C178.144 27.3424 177.754 27.0303 177.485 26.6338L178.142 25.875C178.684 26.5449 179.347 26.8799 180.131 26.8799C180.746 26.8799 181.225 26.7067 181.566 26.3604C181.913 26.014 182.086 25.5264 182.086 24.8975V24.2617C181.58 24.8451 180.89 25.1367 180.015 25.1367C179.149 25.1367 178.447 24.7881 177.909 24.0908C177.376 23.3936 177.109 22.4434 177.109 21.2402ZM178.381 21.3838C178.381 22.2178 178.552 22.874 178.894 23.3525C179.235 23.8265 179.714 24.0635 180.329 24.0635C181.127 24.0635 181.712 23.7012 182.086 22.9766V19.5996C181.699 18.8932 181.118 18.54 180.343 18.54C179.728 18.54 179.247 18.7793 178.9 19.2578C178.554 19.7363 178.381 20.445 178.381 21.3838ZM186.755 22.1973C186.764 21.6549 186.826 21.2266 186.939 20.9121C187.053 20.5977 187.286 20.249 187.637 19.8662L188.532 18.9434C188.915 18.5104 189.106 18.0456 189.106 17.5488C189.106 17.0703 188.981 16.6966 188.73 16.4277C188.48 16.1543 188.115 16.0176 187.637 16.0176C187.172 16.0176 186.798 16.1406 186.516 16.3867C186.233 16.6328 186.092 16.9632 186.092 17.3779H184.827C184.836 16.6396 185.098 16.0449 185.613 15.5938C186.133 15.138 186.807 14.9102 187.637 14.9102C188.498 14.9102 189.168 15.1426 189.646 15.6074C190.13 16.0677 190.371 16.7012 190.371 17.5078C190.371 18.3053 190.002 19.0915 189.264 19.8662L188.519 20.6045C188.186 20.9736 188.02 21.5046 188.02 22.1973H186.755ZM186.7 24.3643C186.7 24.1592 186.762 23.9883 186.885 23.8516C187.012 23.7103 187.199 23.6396 187.445 23.6396C187.691 23.6396 187.878 23.7103 188.006 23.8516C188.133 23.9883 188.197 24.1592 188.197 24.3643C188.197 24.5693 188.133 24.7402 188.006 24.877C187.878 25.0091 187.691 25.0752 187.445 25.0752C187.199 25.0752 187.012 25.0091 186.885 24.877C186.762 24.7402 186.7 24.5693 186.7 24.3643Z" fill="black" fill-opacity="0.3"/>
<path d="M19 27C23.4183 27 27 23.4183 27 19C27 14.5817 23.4183 11 19 11C14.5817 11 11 14.5817 11 19C11 23.4183 14.5817 27 19 27Z" stroke="#C4C4C4" stroke-width="1.5" stroke-linecap="round" stroke-linejoin="round"/>
<path d="M29 28.9999L24.65 24.6499" stroke="#C4C4C4" stroke-width="1.5" stroke-linecap="round" stroke-linejoin="round"/>
</svg>
